<svg width="15" height="15" viewBox="0 0 15 15" fill="none" xmlns="http://www.w3.org/2000/svg">
<path d="M2.64004 1.27L7.50004 6.13L12.34 1.29C12.4249 1.19972 12.527 1.12749 12.6405 1.07766C12.7539 1.02783 12.8762 1.00141 13 1C13.2653 1 13.5196 1.10536 13.7071 1.29289C13.8947 1.48043 14 1.73478 14 2C14.0024 2.1226 13.9796 2.24439 13.9332 2.35788C13.8868 2.47138 13.8176 2.57419 13.73 2.66L8.84004 7.5L13.73 12.39C13.8949 12.5512 13.9915 12.7696 14 13C14 13.2652 13.8947 13.5196 13.7071 13.7071C13.5196 13.8946 13.2653 14 13 14C12.8726 14.0053 12.7454 13.984 12.6267 13.9375C12.5079 13.8911 12.4001 13.8204 12.31 13.73L7.50004 8.87L2.65004 13.72C2.56555 13.8073 2.46461 13.8769 2.35304 13.925C2.24148 13.9731 2.12151 13.9986 2.00004 14C1.73482 14 1.48047 13.8946 1.29293 13.7071C1.1054 13.5196 1.00004 13.2652 1.00004 13C0.997709 12.8774 1.02046 12.7556 1.06689 12.6421C1.11332 12.5286 1.18245 12.4258 1.27004 12.34L6.16004 7.5L1.27004 2.61C1.10523 2.44876 1.00858 2.23041 1.00004 2C1.00004 1.73478 1.1054 1.48043 1.29293 1.29289C1.48047 1.10536 1.73482 1 2.00004 1C2.24004 1.003 2.47004 1.1 2.64004 1.27Z" fill="black" fill-opacity="0.25"/>
</svg>
