<svg width="26" height="26" viewBox="0 0 26 26" fill="none" xmlns="http://www.w3.org/2000/svg">
<g filter="url(#filter0_d)">
<path d="M13 5C13.2652 5 13.5196 5.10536 13.7071 5.29289C13.8946 5.48043 14 5.73478 14 6V12H20C20.2652 12 20.5196 12.1054 20.7071 12.2929C20.8946 12.4804 21 12.7348 21 13C21 13.2652 20.8946 13.5196 20.7071 13.7071C20.5196 13.8946 20.2652 14 20 14H14V20C14 20.2652 13.8946 20.5196 13.7071 20.7071C13.5196 20.8946 13.2652 21 13 21C12.7348 21 12.4804 20.8946 12.2929 20.7071C12.1054 20.5196 12 20.2652 12 20V14H6C5.73478 14 5.48043 13.8946 5.29289 13.7071C5.10536 13.5196 5 13.2652 5 13C5 12.7348 5.10536 12.4804 5.29289 12.2929C5.48043 12.1054 5.73478 12 6 12H12V6C12 5.73478 12.1054 5.48043 12.2929 5.29289C12.4804 5.10536 12.7348 5 13 5Z" fill="#FDCA5E"/>
<path d="M14.0607 4.93934C13.7794 4.65804 13.3978 4.5 13 4.5C12.6022 4.5 12.2206 4.65804 11.9393 4.93934C11.658 5.22064 11.5 5.60217 11.5 6V11.5H6C5.60217 11.5 5.22064 11.658 4.93934 11.9393C4.65804 12.2206 4.5 12.6022 4.5 13C4.5 13.3978 4.65804 13.7794 4.93934 14.0607C5.22064 14.342 5.60217 14.5 6 14.5H11.5V20C11.5 20.3978 11.658 20.7794 11.9393 21.0607C12.2206 21.342 12.6022 21.5 13 21.5C13.3978 21.5 13.7794 21.342 14.0607 21.0607C14.342 20.7794 14.5 20.3978 14.5 20V14.5H20C20.3978 14.5 20.7794 14.342 21.0607 14.0607C21.342 13.7794 21.5 13.3978 21.5 13C21.5 12.6022 21.342 12.2206 21.0607 11.9393C20.7794 11.658 20.3978 11.5 20 11.5H14.5V6C14.5 5.60217 14.342 5.22064 14.0607 4.93934Z" stroke="#FDCA5E"/>
</g>
<defs>
<filter id="filter0_d" x="0" y="0" width="26" height="26" filterUnits="userSpaceOnUse" color-interpolation-filters="sRGB">
<feFlood flood-opacity="0" result="BackgroundImageFix"/>
<feColorMatrix in="SourceAlpha" type="matrix" values="0 0 0 0 0 0 0 0 0 0 0 0 0 0 0 0 0 0 127 0"/>
<feOffset/>
<feGaussianBlur stdDeviation="2"/>
<feColorMatrix type="matrix" values="0 0 0 0 0 0 0 0 0 0 0 0 0 0 0 0 0 0 0.15 0"/>
<feBlend mode="normal" in2="BackgroundImageFix" result="effect1_dropShadow"/>
<feBlend mode="normal" in="SourceGraphic" in2="effect1_dropShadow" result="shape"/>
</filter>
</defs>
</svg>
