<svg width="15" height="15" viewBox="0 0 15 15" fill="none" xmlns="http://www.w3.org/2000/svg">
<path d="M2.64001 1.27L7.50001 6.13L12.34 1.29C12.4248 1.19972 12.527 1.12749 12.6404 1.07766C12.7538 1.02783 12.8761 1.00141 13 1C13.2652 1 13.5196 1.10536 13.7071 1.29289C13.8947 1.48043 14 1.73478 14 2C14.0023 2.1226 13.9796 2.24439 13.9332 2.35788C13.8867 2.47138 13.8176 2.57419 13.73 2.66L8.84001 7.5L13.73 12.39C13.8948 12.5512 13.9915 12.7696 14 13C14 13.2652 13.8947 13.5196 13.7071 13.7071C13.5196 13.8946 13.2652 14 13 14C12.8726 14.0053 12.7454 13.984 12.6266 13.9375C12.5078 13.8911 12.4 13.8204 12.31 13.73L7.50001 8.87L2.65001 13.72C2.56552 13.8073 2.46457 13.8769 2.35301 13.925C2.24145 13.9731 2.12147 13.9986 2.00001 14C1.73479 14 1.48044 13.8946 1.2929 13.7071C1.10537 13.5196 1.00001 13.2652 1.00001 13C0.997679 12.8774 1.02043 12.7556 1.06686 12.6421C1.11328 12.5286 1.18242 12.4258 1.27001 12.34L6.16001 7.5L1.27001 2.61C1.1052 2.44876 1.00855 2.23041 1.00001 2C1.00001 1.73478 1.10537 1.48043 1.2929 1.29289C1.48044 1.10536 1.73479 1 2.00001 1C2.24001 1.003 2.47001 1.1 2.64001 1.27Z" fill="black" fill-opacity="0.25"/>
</svg>
