<svg width="22" height="22" viewBox="0 0 22 22" fill="none" xmlns="http://www.w3.org/2000/svg">
<path d="M16.1792 5.82082C15.4108 5.04557 14.4782 4.4528 13.4501 4.0863C12.422 3.71979 11.3246 3.58891 10.2392 3.70332C6.875 4.04249 4.10667 6.77416 3.73083 10.1383C3.22667 14.5842 6.66417 18.3333 11 18.3333C12.3843 18.3333 13.7401 17.9405 14.91 17.2006C16.08 16.4607 17.0159 15.404 17.6092 14.1533C17.9025 13.5392 17.4625 12.8333 16.7842 12.8333C16.445 12.8333 16.1242 13.0167 15.9775 13.3192C15.4453 14.4641 14.535 15.3908 13.3998 15.9434C12.2645 16.496 10.9736 16.6408 9.74416 16.3533C7.70917 15.9042 6.06833 14.245 5.6375 12.21C5.45639 11.4054 5.45849 10.5704 5.64364 9.76671C5.82878 8.96303 6.19223 8.21126 6.70711 7.567C7.22199 6.92274 7.87512 6.40248 8.6182 6.04469C9.36127 5.6869 10.1753 5.50075 11 5.49999C12.5217 5.49999 13.8783 6.13249 14.8683 7.13166L13.4842 8.51582C12.9067 9.09332 13.31 10.0833 14.1258 10.0833H17.4167C17.9208 10.0833 18.3333 9.67082 18.3333 9.16666V5.87582C18.3333 5.05999 17.3433 4.64749 16.7658 5.22499L16.1792 5.82082Z" fill="black" fill-opacity="0.25"/>
</svg>
