<svg width="20" height="20" viewBox="0 0 20 20" fill="none" xmlns="http://www.w3.org/2000/svg">
<path d="M7.67761 0.90625C8.97297 0.906222 10.2412 1.27778 11.3317 1.97684C12.4223 2.6759 13.2894 3.67312 13.8302 4.85018C14.371 6.02725 14.5629 7.33475 14.383 8.61756C14.203 9.90037 13.6589 11.1046 12.8151 12.0875L18.6943 17.9667L17.9578 18.7031L12.0776 12.8229C11.2483 13.5321 10.2599 14.0303 9.19654 14.2752C8.13319 14.5201 7.0264 14.5043 5.97045 14.2293C4.9145 13.9543 3.94067 13.4281 3.13189 12.6956C2.32311 11.9631 1.70335 11.046 1.32539 10.0223C0.947432 8.99869 0.822475 7.89887 0.96116 6.81654C1.09985 5.7342 1.49806 4.70142 2.1219 3.80615C2.74574 2.91088 3.57671 2.17965 4.54405 1.67473C5.51138 1.16981 6.58642 0.906166 7.67761 0.90625ZM7.67761 1.94792C6.15814 1.94792 4.7009 2.55152 3.62647 3.62595C2.55205 4.70038 1.94844 6.15761 1.94844 7.67708C1.94844 9.19655 2.55205 10.6538 3.62647 11.7282C4.7009 12.8026 6.15814 13.4063 7.67761 13.4063C9.19708 13.4063 10.6543 12.8026 11.7287 11.7282C12.8032 10.6538 13.4068 9.19655 13.4068 7.67708C13.4068 6.15761 12.8032 4.70038 11.7287 3.62595C10.6543 2.55152 9.19708 1.94792 7.67761 1.94792Z" fill="#8B8B8B" stroke="#A4A4A4" stroke-linejoin="bevel"/>
</svg>
